# xmcd
# 
# Track frame offsets:
#     150
#     6645
#     34812
#     53871
#     101976
#     119938
#     157273
#     174079
#     205739
# 
# Disc length: 2929
# 
# Revision: 1
# Processed by: cddbd v1.5.2PL0 Copyright (c) Steve Scherf et al.
# Submitted via: BonkEnc v1.0.8
# 
DISCID=830b6f09
DTITLE=Carl Fontana and Hungarian Jazz Trombone Company - First Time Together
DYEAR=2002
DGENRE=Jazz
TTITLE0=Take the "A" Train
TTITLE1=Showcase
TTITLE2=Rebel Rouser
TTITLE3=It Might as Well Be Spring
TTITLE4=There Is No Greater Love
TTITLE5=What Is This Thing Called Love?
TTITLE6=Littlebit
TTITLE7=Blue Lou
TTITLE8=I Got Rhythm
EXTD=YEAR: 2002
EXTT0=
EXTT1=
EXTT2=
EXTT3=
EXTT4=
EXTT5=
EXTT6=
EXTT7=
EXTT8=
PLAYORDER=
